<mxfile host="app.diagrams.net" modified="2024-07-17T02:07:47.673Z" agent="Mozilla/5.0 (Macintosh; Intel Mac OS X 10_15_7) AppleWebKit/537.36 (KHTML, like Gecko) Chrome/126.0.0.0 Safari/537.36" version="24.7.0" etag="kwPEFkhBWGZkDzqFfdzp" type="github">
  <diagram name="PÃ¡gina-1" id="ZwEqpn-xEo7MGecuqkkL">
    <mxGraphModel>
      <root>
        <mxCell id="0" />
        <mxCell id="1" parent="0" />
      </root>
    </mxGraphModel>
  </diagram>
</mxfile>
